# xmcd CD database file
#
# Track frame offsets:
#	150
#	15327
#	30331
#	48770
#	66558
#	86777
#	106632
#	121253
#	135968
#	157754
#	179440
#	193611
#	207371
#	227216
#	246675
#	266861
#	287047
#	301843
#	316209
#	334830
#	353204
#
# Disc length: 4727 seconds
#
# Revision: 0
# Processed by: cddbd v1.5.1PL2 Copyright (c) Steve Scherf et al.
# Submitted via: CDex 1.51
#
DISCID=26127515
DTITLE=Jazz Play Along - Jazz Ballads
DYEAR=1900
DGENRE=Jazz
TTITLE0=It's Easy To Remember (Melody)
TTITLE1=It's Easy To Remember (Backgrounds)
TTITLE2=June In January (Melody)
TTITLE3=June In January (Backgrounds)
TTITLE4=More Than You Know (Melody)
TTITLE5=More Than You Know (Backgrounds)
TTITLE6=My Romance (Melody)
TTITLE7=My Romance (Backgrounds)
TTITLE8=The Nearness Of You (Melody)
TTITLE9=The Nearness Of You (Backgrounds)
TTITLE10=Some Enchanted Evening (Melody)
TTITLE11=Some Enchanted Evening (Backgrounds)
TTITLE12=The Very Thought Of You (Melody)
TTITLE13=The Very Thought Of You (Backgrounds)
TTITLE14=When Sunny Gets Blue (Melody)
TTITLE15=When Sunny Gets Blue (Backgrounds)
TTITLE16=Yesterdays (Melody)
TTITLE17=Yesterdays (Backgrounds)
TTITLE18=You Don't Know What Love Is (Melody)
TTITLE19=You Don't Know What Love Is (Backgrounds)
TTITLE20=Bb Tuning Notes
EXTD=
EXTT0=
EXTT1=
EXTT2=
EXTT3=
EXTT4=
EXTT5=
EXTT6=
EXTT7=
EXTT8=
EXTT9=
EXTT10=
EXTT11=
EXTT12=
EXTT13=
EXTT14=
EXTT15=
EXTT16=
EXTT17=
EXTT18=
EXTT19=
EXTT20=
PLAYORDER=
